<svg xmlns="http://www.w3.org/2000/svg" xml:space="preserve" id="svg1" version="1.1" viewBox="0 0 76.200001 76.2" height="3in" width="3in"><defs id="defs1"><rect id="rect5" height="17.557659" width="23.410212" y="-55.013999" x="118.80683"></rect><rect id="rect4" height="55.599255" width="81.350488" y="-55.599255" x="118.80683"></rect></defs><g id="layer1"><g id="layer3"><rect y="-1.0739172" x="-0.61366695" height="77.935699" width="77.628868" id="rect63" style="fill:#f47a1c;fill-opacity:1;stroke:none;stroke-width:1.025;stroke-dasharray:none"></rect></g><g style="fill:#ffffff" transform="matrix(0.00842119,0,0,0.00842119,-6.2103876,1.2563543)" stroke-linecap="round" stroke="none" fill="#000000" id="svg"><path style="fill:#ffffff" id="path37" fill="#e8ad89" d="m 7885,7005 c 5,-213 4,-300 -1,-329 l 1,164 z"></path><path d="m 3270.8498,6542.4536 c -262.511,0 -475.2087,219.0086 -475.2087,485.6407 0,266.6323 212.6977,485.4567 475.2087,485.4567 168.3212,0 315.9325,-90.0529 400.2823,-224.9019 9.6404,-13.7415 18.5768,-29.3533 26.9392,-47.619 34.7544,-75.9131 72.7033,-182.2857 95.6063,-267.9186 27.3061,-102.0956 45.9595,-195.363 57.376,-257.732 135.7358,43.1002 204.3822,49.7165 270.3002,49.7668 l 77.1193,251.9024 -56.1838,361.3157 c -1e-4,5.825 120.8426,5.7634 121.6863,0 l 56.1838,-383.7752 -116.4541,-354.9338 -44.7963,2.8841 c 0,0 -146.5579,11.8744 -331.9104,-65.2921 l -70.324,-30.0073 -13.2548,76.9514 c 0,0 -23.6113,154.0876 -67.3171,317.5012 -4.0751,15.2364 -8.4695,30.5256 -12.8866,45.7782 l -35.5302,97.8154 -19.7595,54.5533 -0.4295,-0.9819 c -45.3372,147.4326 -178.8785,252.9456 -336.6471,252.9456 -195.0755,0 -353.461,-161.243 -353.461,-363.709 0,-202.4658 158.3855,-363.893 353.461,-363.893 127.6132,0 239.4114,69.1389 301.4851,173.6009 l 38.353,-148.2573 c -86.2305,-90.5153 -206.5314,-147.0913 -339.8381,-147.0913 z" style="fill:#ffffff;fill-opacity:1;stroke:#ffffff;stroke-width:24.6996;stroke-dasharray:none" id="path61"></path></g><g aria-label="good.
great.
grand.
wonderful." style="font-weight:300;font-size:11.6721px;font-family:Cantarell;-inkscape-font-specification:'Cantarell Light';stroke-width:1.45901;fill:#ffffff" id="text1"><path id="path43" d="m 8.396598,30.006544 c 0,1.809176 1.2372426,3.186484 2.871337,3.186484 0.630293,0 1.213898,-0.210098 1.680782,-0.560261 v 0.303474 c 0,0.700326 -0.606949,1.225571 -1.365636,1.225571 -0.548588,0 -1.038817,-0.280131 -1.22557,-0.641966 L 8.63004,33.92837 c 0.3735072,1.085505 1.599078,1.89088 2.988058,1.89088 1.739143,0 3.069762,-1.248915 3.069762,-2.906353 v -5.941099 h -1.739143 v 0.408524 c -0.466884,-0.350163 -1.050489,-0.560261 -1.680782,-0.560261 -1.6340944,0 -2.871337,1.365636 -2.871337,3.186483 z m 3.174811,-1.459012 c 0.747015,0 1.353964,0.630293 1.353964,1.470684 0,0.817047 -0.606949,1.447341 -1.353964,1.447341 -0.758686,0 -1.353963,-0.630294 -1.353963,-1.447341 0,-0.840391 0.595277,-1.470684 1.353963,-1.470684 z m 7.155002,-1.727471 c -1.855864,0 -3.244844,1.377308 -3.244844,3.186483 0,1.809176 1.38898,3.186484 3.244844,3.186484 1.855864,0 3.244844,-1.377308 3.244844,-3.186484 0,-1.809175 -1.38898,-3.186483 -3.244844,-3.186483 z m -1.423996,3.186483 c 0,-0.817047 0.618621,-1.459012 1.423996,-1.459012 0.793703,0 1.423996,0.641965 1.423996,1.459012 0,0.817047 -0.630293,1.459013 -1.423996,1.459013 -0.805375,0 -1.423996,-0.641966 -1.423996,-1.459013 z m 8.508965,-3.186483 c -1.855864,0 -3.244844,1.377308 -3.244844,3.186483 0,1.809176 1.38898,3.186484 3.244844,3.186484 1.855864,0 3.244844,-1.377308 3.244844,-3.186484 0,-1.809175 -1.38898,-3.186483 -3.244844,-3.186483 z m -1.423996,3.186483 c 0,-0.817047 0.618621,-1.459012 1.423996,-1.459012 0.793703,0 1.423996,0.641965 1.423996,1.459012 0,0.817047 -0.630293,1.459013 -1.423996,1.459013 -0.805375,0 -1.423996,-0.641966 -1.423996,-1.459013 z m 5.264122,0 c 0,1.809176 1.237242,3.186484 2.871336,3.186484 0.630294,0 1.213899,-0.210098 1.680783,-0.560261 v 0.408523 h 1.739143 v -8.754075 h -1.739143 v 3.093107 c -0.466884,-0.350163 -1.050489,-0.560261 -1.680783,-0.560261 -1.634094,0 -2.871336,1.365636 -2.871336,3.186483 z m 3.174811,-1.459012 c 0.747014,0 1.353963,0.630293 1.353963,1.44734 0,0.840391 -0.606949,1.470685 -1.353963,1.470685 -0.758687,0 -1.353964,-0.630294 -1.353964,-1.470685 0,-0.817047 0.595277,-1.44734 1.353964,-1.44734 z m 3.933501,3.653367 c 0,0.571933 0.420196,0.992129 0.980457,0.992129 0.571933,0 1.0038,-0.420196 1.0038,-0.992129 0,-0.571933 -0.431867,-0.992128 -1.0038,-0.992128 -0.560261,0 -0.980457,0.420195 -0.980457,0.992128 z" style="font-weight:bold;font-family:'Mazzard H';-inkscape-font-specification:'Mazzard H Bold';fill:#ffffff;fill-opacity:1"></path><path id="path44" d="m 8.396598,40.130038 c 0,1.809175 1.2372426,3.186483 2.871337,3.186483 0.630293,0 1.213898,-0.210098 1.680782,-0.560261 v 0.303475 c 0,0.700326 -0.606949,1.22557 -1.365636,1.22557 -0.548588,0 -1.038817,-0.28013 -1.22557,-0.641965 L 8.63004,44.051863 c 0.3735072,1.085505 1.599078,1.89088 2.988058,1.89088 1.739143,0 3.069762,-1.248914 3.069762,-2.906353 v -5.941098 h -1.739143 v 0.408523 c -0.466884,-0.350163 -1.050489,-0.560261 -1.680782,-0.560261 -1.6340944,0 -2.871337,1.365636 -2.871337,3.186484 z m 3.174811,-1.459013 c 0.747015,0 1.353964,0.630293 1.353964,1.470685 0,0.817047 -0.606949,1.44734 -1.353964,1.44734 -0.758686,0 -1.353963,-0.630293 -1.353963,-1.44734 0,-0.840392 0.595277,-1.470685 1.353963,-1.470685 z m 4.096912,4.493759 h 1.750815 v -3.268188 c 0,-0.711999 0.525244,-1.248915 1.22557,-1.248915 0.245114,0 0.455212,0.04669 0.630294,0.163409 v -1.867536 c -0.747015,0 -1.377308,0.16341 -1.855864,0.782031 v -0.630293 h -1.750815 z m 3.886798,-3.034746 c 0,1.809175 1.412324,3.186483 3.314876,3.186483 1.307275,0 2.369436,-0.653638 2.906353,-1.645766 l -1.692454,-0.38518 c -0.280131,0.326819 -0.700326,0.536917 -1.202227,0.536917 -0.72367,0 -1.283931,-0.431868 -1.482356,-1.062161 h 4.517102 c 0.04669,-0.198426 0.07003,-0.420196 0.07003,-0.630293 0,-1.809176 -1.38898,-3.186484 -3.209828,-3.186484 -1.832519,0 -3.221499,1.377308 -3.221499,3.186484 z m 3.221499,-1.692455 c 0.66531,0 1.213899,0.408524 1.423997,1.027145 h -2.789632 c 0.198425,-0.618621 0.747014,-1.027145 1.365635,-1.027145 z m 3.735081,1.692455 c 0,1.809175 1.237243,3.186483 2.871337,3.186483 0.630293,0 1.213898,-0.210098 1.680782,-0.560261 v 0.408524 h 1.739143 v -6.069492 h -1.739143 v 0.408523 c -0.466884,-0.350163 -1.050489,-0.560261 -1.680782,-0.560261 -1.634094,0 -2.871337,1.365636 -2.871337,3.186484 z m 3.174811,-1.459013 c 0.747015,0 1.353964,0.630293 1.353964,1.44734 0,0.840392 -0.606949,1.470685 -1.353964,1.470685 -0.758686,0 -1.353963,-0.630293 -1.353963,-1.470685 0,-0.817047 0.595277,-1.44734 1.353963,-1.44734 z m 3.70006,-1.575733 v 1.517373 h 0.828719 v 2.61455 c 0,1.108849 0.933768,1.937569 2.124322,1.937569 h 1.003801 V 41.53069 h -0.711999 c -0.385179,0 -0.665309,-0.268459 -0.665309,-0.641966 v -2.276059 h 1.377308 v -1.517373 h -1.377308 v -1.178883 h -1.750815 v 1.178883 z m 4.528776,5.2291 c 0,0.571933 0.420195,0.992129 0.980456,0.992129 0.571933,0 1.003801,-0.420196 1.003801,-0.992129 0,-0.571933 -0.431868,-0.992128 -1.003801,-0.992128 -0.560261,0 -0.980456,0.420195 -0.980456,0.992128 z" style="font-weight:bold;font-family:'Mazzard H';-inkscape-font-specification:'Mazzard H Bold';fill:#ffffff;fill-opacity:1"></path><path id="path45" d="m 8.396598,50.198783 c 0,1.809175 1.2372426,3.186483 2.871337,3.186483 0.630293,0 1.213898,-0.210098 1.680782,-0.560261 v 0.303475 c 0,0.700326 -0.606949,1.22557 -1.365636,1.22557 -0.548588,0 -1.038817,-0.28013 -1.22557,-0.641965 L 8.63004,54.120608 c 0.3735072,1.085506 1.599078,1.890881 2.988058,1.890881 1.739143,0 3.069762,-1.248915 3.069762,-2.906353 v -5.941099 h -1.739143 v 0.408523 c -0.466884,-0.350163 -1.050489,-0.56026 -1.680782,-0.56026 -1.6340944,0 -2.871337,1.365635 -2.871337,3.186483 z m 3.174811,-1.459013 c 0.747015,0 1.353964,0.630294 1.353964,1.470685 0,0.817047 -0.606949,1.44734 -1.353964,1.44734 -0.758686,0 -1.353963,-0.630293 -1.353963,-1.44734 0,-0.840391 0.595277,-1.470685 1.353963,-1.470685 z m 4.096912,4.493759 h 1.750815 v -3.268188 c 0,-0.711998 0.525244,-1.248915 1.22557,-1.248915 0.245114,0 0.455212,0.04669 0.630294,0.16341 V 47.0123 c -0.747015,0 -1.377308,0.163409 -1.855864,0.78203 v -0.630293 h -1.750815 z m 3.886798,-3.034746 c 0,1.809175 1.237242,3.186483 2.871336,3.186483 0.630294,0 1.213899,-0.210098 1.680783,-0.560261 v 0.408524 h 1.739143 v -6.069492 h -1.739143 v 0.408523 c -0.466884,-0.350163 -1.050489,-0.56026 -1.680783,-0.56026 -1.634094,0 -2.871336,1.365635 -2.871336,3.186483 z M 22.72993,48.73977 c 0.747014,0 1.353964,0.630294 1.353964,1.447341 0,0.840391 -0.60695,1.470684 -1.353964,1.470684 -0.758687,0 -1.353964,-0.630293 -1.353964,-1.470684 0,-0.817047 0.595277,-1.447341 1.353964,-1.447341 z m 4.096912,-1.575733 v 6.069492 h 1.750815 v -3.431598 c 0,-0.665309 0.478556,-1.16721 1.120521,-1.16721 0.630294,0 1.10885,0.501901 1.10885,1.16721 v 3.431598 h 1.750815 v -3.898482 c 0,-1.330619 -1.015473,-2.322747 -2.322748,-2.322747 -0.863735,0 -1.38898,0.431867 -1.657438,0.770358 v -0.618621 z m 6.524712,3.034746 c 0,1.809175 1.237243,3.186483 2.871337,3.186483 0.630293,0 1.213898,-0.210098 1.680782,-0.560261 v 0.408524 h 1.739143 v -8.754075 h -1.739143 v 3.093106 c -0.466884,-0.350163 -1.050489,-0.56026 -1.680782,-0.56026 -1.634094,0 -2.871337,1.365635 -2.871337,3.186483 z m 3.174811,-1.459013 c 0.747015,0 1.353964,0.630294 1.353964,1.447341 0,0.840391 -0.606949,1.470684 -1.353964,1.470684 -0.758686,0 -1.353963,-0.630293 -1.353963,-1.470684 0,-0.817047 0.595277,-1.447341 1.353963,-1.447341 z m 3.933502,3.653368 c 0,0.571933 0.420195,0.992128 0.980456,0.992128 0.571933,0 1.003801,-0.420195 1.003801,-0.992128 0,-0.571933 -0.431868,-0.992129 -1.003801,-0.992129 -0.248992,0 -0.470319,0.08299 -0.639393,0.225414 -0.211362,0.178044 -0.341063,0.448961 -0.341063,0.766715 z" style="font-weight:bold;font-family:'Mazzard H';-inkscape-font-specification:'Mazzard H Bold';fill:#ffffff;fill-opacity:1"></path></g><g id="layer2"></g><text style="font-weight:300;font-size:8px;font-family:Cantarell;-inkscape-font-specification:'Cantarell Light';text-align:start;writing-mode:lr-tb;direction:ltr;white-space:pre;shape-inside:url(#rect4);display:inline;fill:#000000" id="text4" transform="scale(0.26458333)" xml:space="preserve"></text><text style="font-weight:300;font-size:8px;font-family:Cantarell;-inkscape-font-specification:'Cantarell Light';text-align:start;writing-mode:lr-tb;direction:ltr;white-space:pre;shape-inside:url(#rect5);display:inline;fill:#000000" id="text5" transform="scale(0.26458333)" xml:space="preserve"></text><path id="path46" d="m 8.163156,57.451772 1.914224,6.069492 h 1.599078 l 0.957112,-3.209827 0.94544,3.209827 h 1.587406 l 1.925897,-6.069492 h -1.762488 l -0.94544,3.373237 -0.957112,-3.373237 h -1.61075 l -0.94544,3.373237 -0.9454399,-3.373237 z m 15.42879,-1.826991 c -24.42239633,-57.4517717 -24.42239633,-57.4517717 0,0 z m 7.355162,4.861737 c 0,1.809176 1.237243,3.186483 2.871337,3.186483 0.630293,0 1.213898,-0.210097 1.680782,-0.56026 v 0.408523 h 1.739143 v -8.754075 h -1.739143 v 3.093107 c -0.466884,-0.350163 -1.050489,-0.560261 -1.680782,-0.560261 -1.634094,0 -2.871337,1.365635 -2.871337,3.186483 z m 3.174812,-1.459012 c 0.747014,0 1.353963,0.630293 1.353963,1.44734 0,0.840391 -0.606949,1.470685 -1.353963,1.470685 -0.758687,0 -1.353964,-0.630294 -1.353964,-1.470685 0,-0.817047 0.595277,-1.44734 1.353964,-1.44734 z m 3.910157,1.459012 c 0,1.809176 1.412324,3.186483 3.314876,3.186483 1.307276,0 2.369437,-0.653637 2.906353,-1.645766 l -1.692454,-0.385179 c -0.280131,0.326819 -0.700326,0.536917 -1.202226,0.536917 -0.723671,0 -1.283931,-0.431868 -1.482357,-1.062161 h 4.517103 c 0.04669,-0.198426 0.07003,-0.420196 0.07003,-0.630294 0,-0.985915 -0.41249,-1.843576 -1.082574,-2.419978 -0.559536,-0.481308 -1.298681,-0.766505 -2.127253,-0.766505 -1.83252,0 -3.2215,1.377308 -3.2215,3.186483 z m 3.2215,-1.692454 c 0.665309,0 1.213898,0.408523 1.423996,1.027144 h -2.789632 c 0.198426,-0.618621 0.747014,-1.027144 1.365636,-1.027144 z m 3.921835,4.7272 h 1.750815 v -1.875783 -1.392405 c 0,-0.711998 0.525244,-1.248915 1.22557,-1.248915 0.245114,0 0.455212,0.04669 0.630294,0.16341 v -1.867536 c -0.747015,0 -1.377308,0.163409 -1.855864,0.78203 v -0.630293 h -1.750815 z m 3.828441,-6.069492 v 1.482357 h 0.875407 v 4.587135 h 1.750815 v -4.587135 h 1.318947 v -1.482357 h -1.318947 v -0.44354 c 0,-0.350163 0.28013,-0.618621 0.653638,-0.618621 h 0.665309 v -1.622422 h -0.817047 c -1.283931,0 -2.252715,0.863735 -2.252715,2.007601 v 0.676982 z m 4.540444,0 v 3.898482 c 0,1.330619 1.015472,2.322747 2.322748,2.322747 0.863735,0 1.38898,-0.431867 1.657438,-0.770358 v 0.618621 h 1.750815 v -6.069492 h -1.750815 v 3.431598 c 0,0.665309 -0.478556,1.16721 -1.120522,1.16721 -0.630293,0 -1.108849,-0.501901 -1.108849,-1.16721 v -3.431598 z m 6.711464,6.069492 h 1.750815 v -8.754075 h -1.750815 z m 2.567853,-0.840391 c 0,0.571933 0.420195,0.992128 0.980456,0.992128 0.571933,0 1.003801,-0.420195 1.003801,-0.992128 0,-0.571933 -0.431868,-0.992129 -1.003801,-0.992129 -0.560261,0 -0.980456,0.420196 -0.980456,0.992129 z" style="font-weight:bold;font-size:11.6721px;font-family:'Mazzard H';-inkscape-font-specification:'Mazzard H Bold';fill:#ffffff;fill-opacity:1;stroke-width:1.45901"></path><circle r="1.8034459" cy="60.378963" cx="21.333685" id="path59" style="fill:#ffffff;fill-opacity:1;stroke-width:0.330915"></circle><path aria-label="ERGOKEYBOARDS.COM" style="font-weight:bold;font-size:2.5697px;font-family:'Mazzard H';-inkscape-font-specification:'Mazzard H Bold';fill:#333333;stroke-width:1.24438" id="text63" d="m 9.1773927,66.525068 v 1.79879 H 10.534194 V 67.948682 H 9.585975 v -0.34434 h 0.786328 V 67.229166 H 9.585975 v -0.328921 h 0.935371 v -0.375177 z m 1.5469573,1.79879 h 0.408583 v -0.591031 h 0.349479 l 0.346909,0.591031 h 0.452267 l -0.388024,-0.668122 c 0.195297,-0.100218 0.323782,-0.295515 0.323782,-0.526788 0,-0.34434 -0.280097,-0.60388 -0.650134,-0.60388 H 10.72435 Z m 0.842862,-1.423613 c 0.128485,0 0.226133,0.09765 0.226133,0.228703 0,0.131055 -0.09765,0.228703 -0.226133,0.228703 h -0.434279 v -0.457406 z m 0.788898,0.524218 c 0,0.534498 0.411152,0.932801 0.937941,0.932801 0.539637,0 0.93794,-0.411152 0.93794,-0.948219 0,-0.03341 -0.0026,-0.06681 -0.0077,-0.09765 h -0.976486 v 0.346909 h 0.51394 c -0.07452,0.187588 -0.264679,0.308364 -0.470255,0.308364 -0.290376,0 -0.51137,-0.236412 -0.51137,-0.542207 0,-0.305794 0.226133,-0.542206 0.534497,-0.542206 0.203007,0 0.377746,0.102788 0.465116,0.272388 l 0.395734,-0.146473 c -0.154182,-0.318643 -0.483104,-0.51651 -0.86085,-0.51651 -0.542206,0 -0.958498,0.398304 -0.958498,0.932801 z m 2.98856,0.932801 c 0.539637,0 0.94565,-0.403442 0.94565,-0.932801 0,-0.531928 -0.406013,-0.932801 -0.94565,-0.932801 -0.537067,0 -0.94308,0.400873 -0.94308,0.932801 0,0.529359 0.406013,0.932801 0.94308,0.932801 z m -0.519079,-0.932801 c 0,-0.308364 0.223564,-0.542206 0.519079,-0.542206 0.298085,0 0.521649,0.233842 0.521649,0.542206 0,0.308364 -0.223564,0.542207 -0.521649,0.542207 -0.295515,0 -0.519079,-0.233843 -0.519079,-0.542207 z m 2.076315,0.899395 v -0.776049 l 0.644995,0.776049 h 0.51394 l -0.765771,-0.919952 0.714377,-0.878838 h -0.51394 l -0.593601,0.729795 v -0.729795 h -0.408582 v 1.79879 z m 1.297698,-1.79879 v 1.79879 h 1.356801 v -0.375176 h -0.948219 v -0.34434 h 0.786328 v -0.375176 h -0.786328 v -0.328921 h 0.935371 v -0.375177 z m 1.441599,0 0.673261,1.058717 v 0.740073 h 0.406013 v -0.750352 l 0.68354,-1.048438 h -0.465115 l -0.424001,0.675831 -0.406013,-0.675831 z m 1.899008,1.79879 h 0.932802 c 0.3392,0 0.59874,-0.223564 0.59874,-0.521649 0,-0.174739 -0.08994,-0.326352 -0.236413,-0.418861 0.102788,-0.08994 0.164461,-0.215855 0.164461,-0.357188 0,-0.285237 -0.246691,-0.501092 -0.578182,-0.501092 h -0.881408 z m 0.927662,-0.740073 c 0.102788,0 0.179879,0.07966 0.179879,0.182448 0,0.102788 -0.07709,0.182449 -0.179879,0.182449 h -0.519079 v -0.364897 z m -0.05139,-0.68354 c 0.09251,0 0.159322,0.06938 0.159322,0.16446 0,0.09251 -0.06681,0.161891 -0.159322,0.161891 h -0.467685 v -0.326351 z m 1.729407,1.457019 c 0.539637,0 0.945649,-0.403442 0.945649,-0.932801 0,-0.531928 -0.406012,-0.932801 -0.945649,-0.932801 -0.537068,0 -0.94308,0.400873 -0.94308,0.932801 0,0.529359 0.406012,0.932801 0.94308,0.932801 z m -0.51908,-0.932801 c 0,-0.308364 0.223564,-0.542206 0.51908,-0.542206 0.298085,0 0.521649,0.233842 0.521649,0.542206 0,0.308364 -0.223564,0.542207 -0.521649,0.542207 -0.295516,0 -0.51908,-0.233843 -0.51908,-0.542207 z m 1.472437,0.899395 h 0.426571 l 0.123345,-0.303224 h 0.752922 l 0.123346,0.303224 h 0.424 l -0.755491,-1.79879 h -0.336631 z m 0.927662,-1.220607 0.226134,0.552485 h -0.452268 z m 1.061285,1.220607 h 0.408582 v -0.591031 h 0.349479 l 0.34691,0.591031 h 0.452267 l -0.388029,-0.668122 c 0.195298,-0.100218 0.323783,-0.295515 0.323783,-0.526788 0,-0.34434 -0.280098,-0.60388 -0.650135,-0.60388 H 27.08819 Z m 0.842861,-1.423613 c 0.128485,0 0.226134,0.09765 0.226134,0.228703 0,0.131055 -0.09765,0.228703 -0.226134,0.228703 h -0.434279 v -0.457406 z m 0.886549,1.423613 h 0.740074 c 0.537067,0 0.943079,-0.393164 0.943079,-0.899395 0,-0.506231 -0.406012,-0.899395 -0.943079,-0.899395 H 28.8176 Z m 0.740074,-1.423613 c 0.295515,0 0.519079,0.231273 0.519079,0.524218 0,0.292946 -0.223564,0.524219 -0.519079,0.524219 h -0.331492 v -1.048437 z m 1.788512,1.457019 c 0.393164,0 0.673261,-0.223563 0.673261,-0.575612 0,-0.370037 -0.303225,-0.475395 -0.51651,-0.539637 -0.246691,-0.07452 -0.418861,-0.115637 -0.418861,-0.228704 0,-0.0848 0.09508,-0.146473 0.215855,-0.146473 0.123346,0 0.215855,0.06681 0.238982,0.141334 l 0.403443,-0.09508 c -0.06424,-0.238982 -0.318643,-0.421431 -0.650134,-0.421431 -0.364897,0 -0.616728,0.223564 -0.616728,0.552486 0,0.377746 0.331491,0.477964 0.639855,0.573043 0.131055,0.04368 0.295516,0.08994 0.295516,0.200436 0,0.09765 -0.118206,0.164461 -0.264679,0.164461 -0.167031,0 -0.287807,-0.0848 -0.313504,-0.182448 l -0.408582,0.09765 c 0.07452,0.264679 0.352049,0.459976 0.722086,0.459976 z m 0.783758,-0.218424 c 0,0.125915 0.09251,0.218424 0.215854,0.218424 0.125916,0 0.220995,-0.09251 0.220995,-0.218424 0,-0.125915 -0.09508,-0.218425 -0.220995,-0.218425 -0.123345,0 -0.215854,0.09251 -0.215854,0.218425 z M 32.685,67.424463 c 0,0.529359 0.406012,0.932801 0.94308,0.932801 0.388024,0 0.706667,-0.208145 0.85571,-0.516509 l -0.395734,-0.146473 c -0.08737,0.164461 -0.2544,0.272388 -0.459976,0.272388 -0.295516,0 -0.51908,-0.233843 -0.51908,-0.542207 0,-0.308364 0.223564,-0.542206 0.51908,-0.542206 0.205576,0 0.372606,0.107927 0.459976,0.272388 l 0.395734,-0.146473 c -0.149043,-0.310934 -0.467686,-0.51651 -0.85571,-0.51651 -0.537068,0 -0.94308,0.400873 -0.94308,0.932801 z m 2.867787,0.932801 c 0.539637,0 0.94565,-0.403442 0.94565,-0.932801 0,-0.531928 -0.406013,-0.932801 -0.94565,-0.932801 -0.537067,0 -0.94308,0.400873 -0.94308,0.932801 0,0.529359 0.406013,0.932801 0.94308,0.932801 z m -0.519079,-0.932801 c 0,-0.308364 0.223564,-0.542206 0.519079,-0.542206 0.298085,0 0.521649,0.233842 0.521649,0.542206 0,0.308364 -0.223564,0.542207 -0.521649,0.542207 -0.295515,0 -0.519079,-0.233843 -0.519079,-0.542207 z m 2.071175,0.899395 V 67.2857 l 0.467686,0.845431 h 0.269818 L 38.310073,67.2857 v 1.038158 h 0.403443 v -1.79879 h -0.403443 l -0.60131,1.068996 -0.60388,-1.068996 h -0.403442 v 1.79879 z"></path></g></svg>
